<svg width="207" height="149" viewBox="0 0 207 149" fill="none" xmlns="http://www.w3.org/2000/svg">
<path d="M99.8795 1.28762C100.226 1.45422 100.446 1.80458 100.446 2.18893L100.442 29.3248C100.442 29.8771 99.9946 30.3247 99.4424 30.3247H67.0527C66.5187 30.3247 66.0789 29.9052 66.0538 29.3718C65.8035 24.0634 66.4254 18.6955 67.9454 13.4979L99.8795 1.28762ZM99.8795 1.28762C99.5331 1.12102 99.1219 1.16768 98.8217 1.40764M99.8795 1.28762L98.8217 1.40764M98.8217 1.40764L97.8335 2.1974M98.8217 1.40764L97.8335 2.1974M97.8335 2.1974C90.6079 7.76997 81.6629 10.5949 72.5739 10.1759L72.5738 10.1758C71.5423 10.1285 70.5257 10.4311 69.6866 11.034C68.8478 11.6368 68.2354 12.5045 67.9456 13.4973L97.8335 2.1974ZM99.4424 35.5861H67.9646C67.6644 35.5861 67.38 35.721 67.1901 35.9535C67.0002 36.1861 66.9248 36.4917 66.9848 36.7859C68.6874 45.1381 72.5597 52.8865 78.2072 59.2402C83.8547 65.5939 91.0753 70.3253 99.1326 72.9508C99.4371 73.05 99.7707 72.9974 100.03 72.8093C100.289 72.6211 100.442 72.3203 100.442 72V36.6716C100.445 36.6434 100.446 36.6149 100.446 36.5861C100.446 36.0338 99.9983 35.5861 99.446 35.5861H99.4424ZM105.655 71.9674C105.655 72.288 105.809 72.5892 106.068 72.7772C106.328 72.9653 106.662 73.0174 106.967 72.9175C118.326 69.1896 127.889 61.3178 133.778 50.8513C136.246 46.4683 138.015 41.7216 139.019 36.7854C139.079 36.4913 139.003 36.1858 138.813 35.9534C138.623 35.7209 138.339 35.5861 138.039 35.5861H106.651C106.386 35.5861 106.132 35.6915 105.944 35.879C105.757 36.0666 105.651 36.321 105.651 36.5862L105.655 71.9674ZM105.651 29.3247C105.651 29.877 106.099 30.3247 106.651 30.3247L137.095 13.778L138.055 13.4979C138.055 13.4978 138.055 13.4976 138.054 13.4975C137.765 12.5046 137.152 11.6368 136.313 11.034C135.477 10.4327 134.463 10.1301 133.435 10.1755L132.225 10.2112C132.222 10.2112 132.22 10.2113 132.217 10.2113C123.169 10.3427 114.366 7.27112 107.339 1.53909C107.321 1.52234 107.303 1.50618 107.284 1.49065L106.96 1.2256C106.534 0.877611 105.907 0.938906 105.556 1.3628C105.215 1.77505 105.261 2.37975 105.651 2.73729V29.3247Z" fill="#22C192" stroke="#22C192" stroke-width="2" stroke-linecap="round" stroke-linejoin="round"/>
<path d="M8.424 99.351C7.38 99.351 6.3765 99.189 5.4135 98.865C4.4595 98.532 3.6225 98.0595 2.9025 97.4475C2.1825 96.8265 1.665 96.084 1.35 95.22L4.4415 94.086C4.5675 94.446 4.824 94.7745 5.211 95.0715C5.598 95.3685 6.0705 95.607 6.6285 95.787C7.1865 95.967 7.785 96.057 8.424 96.057C9.081 96.057 9.693 95.958 10.26 95.76C10.836 95.553 11.2995 95.2695 11.6505 94.9095C12.0015 94.5405 12.177 94.113 12.177 93.627C12.177 93.132 11.9925 92.727 11.6235 92.412C11.2545 92.088 10.782 91.8315 10.206 91.6425C9.63 91.4535 9.036 91.3095 8.424 91.2105C7.083 91.0035 5.8815 90.684 4.8195 90.252C3.7575 89.82 2.916 89.2215 2.295 88.4565C1.683 87.6915 1.377 86.7015 1.377 85.4865C1.377 84.3435 1.7055 83.3445 2.3625 82.4895C3.0195 81.6345 3.8835 80.9685 4.9545 80.4915C6.0255 80.0145 7.182 79.776 8.424 79.776C9.459 79.776 10.458 79.938 11.421 80.262C12.384 80.586 13.2255 81.0585 13.9455 81.6795C14.6745 82.3005 15.1965 83.0475 15.5115 83.9205L12.4065 85.041C12.2805 84.681 12.024 84.3525 11.637 84.0555C11.25 83.7585 10.7775 83.5245 10.2195 83.3535C9.6615 83.1735 9.063 83.0835 8.424 83.0835C7.785 83.0745 7.1775 83.178 6.6015 83.394C6.0345 83.601 5.571 83.8845 5.211 84.2445C4.851 84.6045 4.671 85.0185 4.671 85.4865C4.671 86.0895 4.8375 86.544 5.1705 86.85C5.5125 87.156 5.967 87.381 6.534 87.525C7.101 87.66 7.731 87.786 8.424 87.903C9.684 88.101 10.8495 88.434 11.9205 88.902C12.9915 89.37 13.851 89.9955 14.499 90.7785C15.147 91.5525 15.471 92.502 15.471 93.627C15.471 94.77 15.147 95.7735 14.499 96.6375C13.851 97.4925 12.9915 98.1585 11.9205 98.6355C10.8495 99.1125 9.684 99.351 8.424 99.351ZM37.1358 85.5H40.4298V99H37.1358L36.9873 97.326C36.6183 97.929 36.1278 98.4195 35.5158 98.7975C34.9128 99.1665 34.1973 99.351 33.3693 99.351C32.3703 99.351 31.4343 99.162 30.5613 98.784C29.6883 98.406 28.9188 97.884 28.2528 97.218C27.5958 96.552 27.0783 95.7825 26.7003 94.9095C26.3313 94.0365 26.1468 93.1005 26.1468 92.1015C26.1468 91.1385 26.3223 90.234 26.6733 89.388C27.0333 88.542 27.5328 87.7995 28.1718 87.1605C28.8108 86.5215 29.5488 86.022 30.3858 85.662C31.2228 85.302 32.1228 85.122 33.0858 85.122C33.9768 85.122 34.7733 85.32 35.4753 85.716C36.1863 86.112 36.7893 86.616 37.2843 87.228L37.1358 85.5ZM33.2883 96.1785C33.9903 96.1785 34.6113 96.003 35.1513 95.652C35.6913 95.301 36.1143 94.8285 36.4203 94.2345C36.7263 93.6315 36.8793 92.97 36.8793 92.25C36.8793 91.521 36.7263 90.8595 36.4203 90.2655C36.1143 89.6625 35.6868 89.1855 35.1378 88.8345C34.5978 88.4835 33.9813 88.308 33.2883 88.308C32.5953 88.308 31.9608 88.488 31.3848 88.848C30.8178 89.199 30.3633 89.6715 30.0213 90.2655C29.6883 90.8595 29.5218 91.521 29.5218 92.25C29.5218 92.979 29.6928 93.6405 30.0348 94.2345C30.3768 94.8285 30.8313 95.301 31.3983 95.652C31.9743 96.003 32.6043 96.1785 33.2883 96.1785ZM55.8503 82.665V85.5H59.5358V88.794H55.8503V99H52.5563V88.794H51.0848V85.5H52.5563V82.665C52.5563 81.891 52.7453 81.1845 53.1233 80.5455C53.5103 79.8975 54.0278 79.3845 54.6758 79.0065C55.3238 78.6195 56.0393 78.426 56.8223 78.426C57.3893 78.426 57.9518 78.543 58.5098 78.777C59.0678 79.011 59.5628 79.371 59.9948 79.857L57.6188 82.179C57.5378 82.026 57.4208 81.9135 57.2678 81.8415C57.1238 81.7605 56.9753 81.72 56.8223 81.72C56.5613 81.72 56.3318 81.8145 56.1338 82.0035C55.9448 82.1835 55.8503 82.404 55.8503 82.665ZM76.3457 99.351C75.1037 99.351 73.9697 99.0315 72.9437 98.3925C71.9267 97.7535 71.1122 96.894 70.5002 95.814C69.8972 94.734 69.5957 93.5415 69.5957 92.2365C69.5957 91.2555 69.7712 90.3375 70.1222 89.4825C70.4732 88.6185 70.9547 87.8625 71.5667 87.2145C72.1877 86.5575 72.9077 86.0445 73.7267 85.6755C74.5457 85.3065 75.4187 85.122 76.3457 85.122C77.3987 85.122 78.3617 85.347 79.2347 85.797C80.1167 86.238 80.8637 86.8455 81.4757 87.6195C82.0877 88.3935 82.5332 89.2755 82.8122 90.2655C83.0912 91.2555 83.1542 92.2905 83.0012 93.3705H73.1327C73.2587 93.8745 73.4657 94.329 73.7537 94.734C74.0417 95.13 74.4062 95.4495 74.8472 95.6925C75.2882 95.9265 75.7877 96.048 76.3457 96.057C76.9217 96.066 77.4437 95.931 77.9117 95.652C78.3887 95.364 78.7847 94.977 79.0997 94.491L82.4612 95.274C81.9122 96.471 81.0932 97.452 80.0042 98.217C78.9152 98.973 77.6957 99.351 76.3457 99.351ZM73.0247 90.9H79.6667C79.5677 90.36 79.3562 89.874 79.0322 89.442C78.7172 89.001 78.3257 88.65 77.8577 88.389C77.3897 88.128 76.8857 87.9975 76.3457 87.9975C75.8057 87.9975 75.3062 88.128 74.8472 88.389C74.3882 88.641 73.9967 88.9875 73.6727 89.4285C73.3577 89.8605 73.1417 90.351 73.0247 90.9ZM104.177 85.5H107.471V99.2565C107.471 100.229 107.273 101.111 106.877 101.903C106.481 102.704 105.941 103.388 105.257 103.955C104.573 104.531 103.79 104.972 102.908 105.278C102.026 105.593 101.099 105.75 100.127 105.75C99.1824 105.75 98.2734 105.557 97.4004 105.17C96.5274 104.783 95.7534 104.252 95.0784 103.577C94.4124 102.911 93.9039 102.15 93.5529 101.295L96.5634 99.9315C96.7434 100.427 97.0134 100.859 97.3734 101.228C97.7424 101.606 98.1654 101.898 98.6424 102.105C99.1194 102.321 99.6144 102.429 100.127 102.429C100.649 102.429 101.149 102.357 101.626 102.213C102.112 102.069 102.548 101.858 102.935 101.579C103.322 101.309 103.624 100.976 103.84 100.58C104.065 100.193 104.177 99.7515 104.177 99.2565V97.353C103.754 97.947 103.223 98.4285 102.584 98.7975C101.945 99.1665 101.207 99.351 100.37 99.351C99.3984 99.351 98.4894 99.1665 97.6434 98.7975C96.7974 98.4285 96.0504 97.92 95.4024 97.272C94.7634 96.615 94.2594 95.859 93.8904 95.004C93.5304 94.149 93.3504 93.231 93.3504 92.25C93.3504 91.269 93.5304 90.351 93.8904 89.496C94.2594 88.641 94.7634 87.8895 95.4024 87.2415C96.0504 86.5845 96.7974 86.0715 97.6434 85.7025C98.4894 85.3335 99.3984 85.149 100.37 85.149C101.207 85.149 101.945 85.3335 102.584 85.7025C103.223 86.0625 103.754 86.5395 104.177 87.1335V85.5ZM100.411 96.1785C101.104 96.1785 101.716 96.003 102.247 95.652C102.787 95.292 103.21 94.815 103.516 94.221C103.822 93.618 103.975 92.961 103.975 92.25C103.975 91.53 103.817 90.873 103.502 90.279C103.196 89.685 102.773 89.208 102.233 88.848C101.702 88.488 101.095 88.308 100.411 88.308C99.7359 88.308 99.1194 88.488 98.5614 88.848C98.0034 89.199 97.5579 89.6715 97.2249 90.2655C96.8919 90.8595 96.7254 91.521 96.7254 92.25C96.7254 92.979 96.8919 93.6405 97.2249 94.2345C97.5579 94.8285 98.0034 95.301 98.5614 95.652C99.1194 96.003 99.7359 96.1785 100.411 96.1785ZM118.667 94.005V85.5H121.961V93.141C121.961 93.672 122.092 94.158 122.353 94.599C122.614 95.031 122.96 95.3775 123.392 95.6385C123.833 95.8905 124.315 96.0165 124.837 96.0165C125.377 96.0165 125.863 95.8905 126.295 95.6385C126.727 95.3775 127.073 95.031 127.334 94.599C127.595 94.158 127.726 93.672 127.726 93.141V85.5H131.02L131.033 99H127.739L127.726 97.7715C127.258 98.2575 126.704 98.6445 126.065 98.9325C125.426 99.2115 124.742 99.351 124.013 99.351C123.032 99.351 122.137 99.1125 121.327 98.6355C120.517 98.1495 119.869 97.506 119.383 96.705C118.906 95.895 118.667 94.995 118.667 94.005ZM152.613 85.5H155.907V99H152.613L152.465 97.326C152.096 97.929 151.605 98.4195 150.993 98.7975C150.39 99.1665 149.675 99.351 148.847 99.351C147.848 99.351 146.912 99.162 146.039 98.784C145.166 98.406 144.396 97.884 143.73 97.218C143.073 96.552 142.556 95.7825 142.178 94.9095C141.809 94.0365 141.624 93.1005 141.624 92.1015C141.624 91.1385 141.8 90.234 142.151 89.388C142.511 88.542 143.01 87.7995 143.649 87.1605C144.288 86.5215 145.026 86.022 145.863 85.662C146.7 85.302 147.6 85.122 148.563 85.122C149.454 85.122 150.251 85.32 150.953 85.716C151.664 86.112 152.267 86.616 152.762 87.228L152.613 85.5ZM148.766 96.1785C149.468 96.1785 150.089 96.003 150.629 95.652C151.169 95.301 151.592 94.8285 151.898 94.2345C152.204 93.6315 152.357 92.97 152.357 92.25C152.357 91.521 152.204 90.8595 151.898 90.2655C151.592 89.6625 151.164 89.1855 150.615 88.8345C150.075 88.4835 149.459 88.308 148.766 88.308C148.073 88.308 147.438 88.488 146.862 88.848C146.295 89.199 145.841 89.6715 145.499 90.2655C145.166 90.8595 144.999 91.521 144.999 92.25C144.999 92.979 145.17 93.6405 145.512 94.2345C145.854 94.8285 146.309 95.301 146.876 95.652C147.452 96.003 148.082 96.1785 148.766 96.1785ZM167.521 99L167.508 85.5H170.802L170.815 86.7015C171.274 86.2155 171.823 85.833 172.462 85.554C173.101 85.266 173.79 85.122 174.528 85.122C175.023 85.122 175.518 85.194 176.013 85.338L174.717 88.659C174.375 88.524 174.033 88.4565 173.691 88.4565C173.16 88.4565 172.674 88.587 172.233 88.848C171.801 89.1 171.454 89.4465 171.193 89.8875C170.941 90.3195 170.815 90.801 170.815 91.332V99H167.521ZM196.01 78.75H199.304V99H196.01V97.3125C195.578 97.9155 195.034 98.406 194.377 98.784C193.72 99.162 192.959 99.351 192.095 99.351C191.114 99.351 190.196 99.1665 189.341 98.7975C188.486 98.4285 187.73 97.92 187.073 97.272C186.425 96.615 185.917 95.859 185.548 95.004C185.179 94.149 184.994 93.231 184.994 92.25C184.994 91.269 185.179 90.351 185.548 89.496C185.917 88.641 186.425 87.8895 187.073 87.2415C187.73 86.5845 188.486 86.0715 189.341 85.7025C190.196 85.3335 191.114 85.149 192.095 85.149C192.959 85.149 193.72 85.338 194.377 85.716C195.034 86.085 195.578 86.5755 196.01 87.1875V78.75ZM192.136 96.1785C192.838 96.1785 193.459 96.003 193.999 95.652C194.539 95.301 194.962 94.8285 195.268 94.2345C195.574 93.6315 195.727 92.97 195.727 92.25C195.727 91.521 195.574 90.8595 195.268 90.2655C194.962 89.6625 194.534 89.1855 193.985 88.8345C193.445 88.4835 192.829 88.308 192.136 88.308C191.443 88.308 190.808 88.488 190.232 88.848C189.665 89.199 189.211 89.6715 188.869 90.2655C188.536 90.8595 188.369 91.521 188.369 92.25C188.369 92.979 188.54 93.6405 188.882 94.2345C189.224 94.8285 189.679 95.301 190.246 95.652C190.822 96.003 191.452 96.1785 192.136 96.1785Z" fill="#1E232C"/>
</svg>
